<svg width="51" height="47" viewBox="0 0 51 47" fill="none" xmlns="http://www.w3.org/2000/svg">
<path fill-rule="evenodd" clip-rule="evenodd" d="M21.957 3.50882C21.957 3.50882 14.7228 -0.799039 7.97218 1.87507C1.22154 4.54919 -0.107012 9.62687 1.78552 9.32495C3.67805 9.02369 6.55409 8.90541 7.05728 15.7946C7.25921 18.5615 21.957 3.50882 21.957 3.50882Z" fill="#2FB5F6"/>
<mask id="mask0_11_178" style="mask-type:luminance" maskUnits="userSpaceOnUse" x="1" y="1" width="21" height="16">
<path d="M21.957 3.509C21.957 3.509 14.7228 -0.798856 7.97218 1.87526C1.22154 4.54937 -0.107012 9.62705 1.78552 9.32514C3.67805 9.02387 6.55409 8.90559 7.05728 15.7948C7.25921 18.5617 21.957 3.509 21.957 3.509Z" fill="white"/>
</mask>
<g mask="url(#mask0_11_178)">
<path fill-rule="evenodd" clip-rule="evenodd" d="M4.2415 6.35154C8.69464 3.31119 11.9131 3.03807 16.1395 3.43317C19.0915 3.70929 21.3477 2.43867 21.3477 2.43867C21.3477 2.43867 3.74239 -5.66467 1.78483 7.141C1.50497 8.9706 2.84068 7.40066 4.2415 6.35154Z" fill="#56C8FF"/>
</g>
<path fill-rule="evenodd" clip-rule="evenodd" d="M21.957 3.50882C21.957 3.50882 14.7228 -0.799039 7.97218 1.87507C1.22154 4.54919 -0.107012 9.62687 1.78552 9.32495C3.67805 9.02369 6.55409 8.90541 7.05728 15.7946C7.25921 18.5615 21.957 3.50882 21.957 3.50882Z" stroke="#001249" stroke-miterlimit="1.5" stroke-linecap="round" stroke-linejoin="round"/>
<path fill-rule="evenodd" clip-rule="evenodd" d="M41.5275 37.7502C41.0322 35.7648 46.1569 30.9825 46.1569 30.9825C46.1569 30.9825 52.3632 35.7381 48.2037 37.6214C44.7793 39.1715 41.5275 37.7502 41.5275 37.7502Z" fill="#2FB5F6"/>
<mask id="mask1_11_178" style="mask-type:luminance" maskUnits="userSpaceOnUse" x="41" y="30" width="9" height="9">
<path d="M41.5275 37.7504C41.0322 35.765 46.1569 30.9827 46.1569 30.9827C46.1569 30.9827 52.3632 35.7382 48.2037 37.6216C44.7793 39.1717 41.5275 37.7504 41.5275 37.7504Z" fill="white"/>
</mask>
<g mask="url(#mask1_11_178)">
<path fill-rule="evenodd" clip-rule="evenodd" d="M44.5006 31.7937C44.5006 31.7937 47.9181 38.1191 49.2149 35.9842C50.5117 33.8493 47.8612 30.0142 45.5662 30.5216C43.2704 31.0289 44.5006 31.7937 44.5006 31.7937Z" fill="#56C8FF"/>
</g>
<path fill-rule="evenodd" clip-rule="evenodd" d="M41.5275 37.7502C41.0322 35.7648 46.1569 30.9825 46.1569 30.9825C46.1569 30.9825 52.3632 35.7381 48.2037 37.6214C44.7793 39.1715 41.5275 37.7502 41.5275 37.7502Z" stroke="#001249" stroke-miterlimit="1.5" stroke-linecap="round" stroke-linejoin="round"/>
<path d="M25.8396 45.2849C37.6418 45.2849 47.2094 35.7173 47.2094 23.915C47.2094 12.1128 37.6418 2.54517 25.8396 2.54517C14.0373 2.54517 4.46973 12.1128 4.46973 23.915C4.46973 35.7173 14.0373 45.2849 25.8396 45.2849Z" fill="#56C8FF"/>
<mask id="mask2_11_178" style="mask-type:luminance" maskUnits="userSpaceOnUse" x="4" y="2" width="44" height="44">
<path d="M25.8396 45.2849C37.6418 45.2849 47.2094 35.7173 47.2094 23.915C47.2094 12.1128 37.6418 2.54517 25.8396 2.54517C14.0373 2.54517 4.46973 12.1128 4.46973 23.915C4.46973 35.7173 14.0373 45.2849 25.8396 45.2849Z" fill="white"/>
</mask>
<g mask="url(#mask2_11_178)">
<path d="M24.3992 47.736C36.2014 47.736 45.769 38.1684 45.769 26.3661C45.769 14.5639 36.2014 4.99628 24.3992 4.99628C12.5969 4.99628 3.0293 14.5639 3.0293 26.3661C3.0293 38.1684 12.5969 47.736 24.3992 47.736Z" fill="#2FB5F6"/>
<path d="M33.997 12.1555C35.8656 13.2343 37.9842 13.0629 38.7292 11.7725C39.4742 10.4821 38.5634 8.56153 36.6948 7.48272C34.8263 6.40391 32.7076 6.57541 31.9626 7.86577C31.2176 9.15613 32.1284 11.0767 33.997 12.1555Z" fill="#56C8FF"/>
<path fill-rule="evenodd" clip-rule="evenodd" d="M44.0255 34.6644C44.0255 34.6644 47.5134 24.9522 35.5952 25.443C30.3354 25.6601 27.9715 27.9955 26.5131 29.1262C22.3256 32.3708 15.4951 34.8522 11.1445 37.2243C5.08331 40.5288 4.25644 42.4212 7.06405 42.208C11.8861 41.8405 15.1307 47.479 22.0413 48.7047C28.9511 49.9304 43.8063 39.9271 44.0255 34.6644Z" fill="white"/>
</g>
<path d="M25.8396 45.2849C37.6418 45.2849 47.2094 35.7173 47.2094 23.915C47.2094 12.1128 37.6418 2.54517 25.8396 2.54517C14.0373 2.54517 4.46973 12.1128 4.46973 23.915C4.46973 35.7173 14.0373 45.2849 25.8396 45.2849Z" stroke="#001249" stroke-miterlimit="1.5" stroke-linecap="round" stroke-linejoin="round"/>
<path d="M25.3186 28.9109C23.7197 28.9109 22.4234 28.3135 22.4234 27.5766C22.4234 26.8397 23.7197 26.2422 25.3186 26.2422C26.9176 26.2422 28.2139 26.8397 28.2139 27.5766C28.2139 28.3135 26.9176 28.9109 25.3186 28.9109Z" fill="#FFA2AC"/>
<path fill-rule="evenodd" clip-rule="evenodd" d="M25.0107 30.1912C25.0107 30.1912 22.519 43.6657 10.7423 40.3237C6.39324 39.0892 12.1264 31.4355 16.9505 28.447" fill="#2FB5F6"/>
<mask id="mask3_11_178" style="mask-type:luminance" maskUnits="userSpaceOnUse" x="9" y="28" width="17" height="13">
<path d="M25.0107 30.1912C25.0107 30.1912 22.519 43.6657 10.7423 40.3237C6.39324 39.0892 12.1264 31.4355 16.9505 28.447" fill="white"/>
</mask>
<g mask="url(#mask3_11_178)">
<path fill-rule="evenodd" clip-rule="evenodd" d="M24.2969 33.636C24.2969 33.636 24.3613 30.4976 22.5534 31.6156C20.744 32.7335 19.6051 36.612 15.794 37.7516C11.9829 38.8913 10.148 38.8359 11.9066 40.6086C15.4228 44.1533 25.5481 35.5127 24.2969 33.636Z" fill="#56C8FF"/>
</g>
<path d="M25.0107 30.1912C25.0107 30.1912 22.519 43.6657 10.7423 40.3237C6.39324 39.0892 12.1264 31.4355 16.9505 28.447" stroke="#001249" stroke-miterlimit="1.5" stroke-linecap="round" stroke-linejoin="round"/>
<path d="M42.4009 24.0615C40.884 24.0615 39.6544 22.7888 39.6544 21.2188C39.6544 19.6488 40.884 18.3761 42.4009 18.3761C43.9178 18.3761 45.1475 19.6488 45.1475 21.2188C45.1475 22.7888 43.9178 24.0615 42.4009 24.0615Z" fill="#001249"/>
<path d="M42.1454 21.069C41.6163 21.069 41.1873 20.625 41.1873 20.0773C41.1873 19.5297 41.6163 19.0857 42.1454 19.0857C42.6746 19.0857 43.1035 19.5297 43.1035 20.0773C43.1035 20.625 42.6746 21.069 42.1454 21.069Z" fill="white"/>
<path d="M43.0067 23.0581C42.6722 23.0581 42.4011 22.7775 42.4011 22.4313C42.4011 22.0851 42.6722 21.8044 43.0067 21.8044C43.3412 21.8044 43.6123 22.0851 43.6123 22.4313C43.6123 22.7775 43.3412 23.0581 43.0067 23.0581Z" fill="white"/>
<path d="M41.4851 21.7749C41.3205 21.7749 41.1871 21.6367 41.1871 21.4663C41.1871 21.296 41.3205 21.1578 41.4851 21.1578C41.6498 21.1578 41.7832 21.296 41.7832 21.4663C41.7832 21.6367 41.6498 21.7749 41.4851 21.7749Z" fill="white"/>
<path fill-rule="evenodd" clip-rule="evenodd" d="M36.4647 22.1989C36.4647 22.1989 38.4454 23.0334 43.6532 23.5058C45.8718 23.7071 45.1222 26.9321 42.9343 27.9496C39.3361 29.6226 32.9953 28.462 31.7595 24.3554" fill="#2FB5F6"/>
<mask id="mask4_11_178" style="mask-type:luminance" maskUnits="userSpaceOnUse" x="31" y="22" width="14" height="7">
<path d="M36.4647 22.199C36.4647 22.199 38.4454 23.0336 43.6532 23.506C45.8718 23.7073 45.1222 26.9323 42.9343 27.9498C39.3361 29.6228 32.9953 28.4622 31.7595 24.3556" fill="white"/>
</mask>
<g mask="url(#mask4_11_178)">
<path fill-rule="evenodd" clip-rule="evenodd" d="M43.7268 23.6231C43.7268 23.6231 39.7884 21.6531 38.2635 22.6446C36.7386 23.636 38.6923 24.8412 41.0384 25.3084C43.1529 25.7297 44.9919 24.977 43.7268 23.6231Z" fill="#56C8FF"/>
</g>
<path d="M36.4647 22.1989C36.4647 22.1989 38.4454 23.0334 43.6532 23.5058C45.8718 23.7071 45.1222 26.9321 42.9343 27.9496C39.3361 29.6226 32.9953 28.462 31.7595 24.3554" stroke="#001249" stroke-miterlimit="1.5" stroke-linecap="round" stroke-linejoin="round"/>
<path d="M25.2029 25.532C22.9537 25.532 21.1304 23.6449 21.1304 21.3169C21.1304 18.989 22.9537 17.1019 25.2029 17.1019C27.4521 17.1019 29.2754 18.989 29.2754 21.3169C29.2754 23.6449 27.4521 25.532 25.2029 25.532Z" fill="#001249"/>
<path d="M24.3069 21.4666C23.5223 21.4666 22.8863 20.8083 22.8863 19.9963C22.8863 19.1842 23.5223 18.5259 24.3069 18.5259C25.0915 18.5259 25.7275 19.1842 25.7275 19.9963C25.7275 20.8083 25.0915 21.4666 24.3069 21.4666Z" fill="white"/>
<path d="M26.1462 24.044C25.6751 24.044 25.2933 23.6488 25.2933 23.1613C25.2933 22.6738 25.6751 22.2786 26.1462 22.2786C26.6172 22.2786 26.999 22.6738 26.999 23.1613C26.999 23.6488 26.6172 24.044 26.1462 24.044Z" fill="white"/>
<path d="M23.0444 22.2323C22.8003 22.2323 22.6024 22.0275 22.6024 21.7748C22.6024 21.5222 22.8003 21.3174 23.0444 21.3174C23.2884 21.3174 23.4863 21.5222 23.4863 21.7748C23.4863 22.0275 23.2884 22.2323 23.0444 22.2323Z" fill="white"/>
<path fill-rule="evenodd" clip-rule="evenodd" d="M28.5604 14.2211C28.919 14.4586 29.0181 14.9422 28.7805 15.3015C28.5431 15.66 28.0588 15.7583 27.7003 15.5208C26.9568 15.0288 26.16 14.941 25.3151 15.2062C24.9053 15.3356 24.467 15.1071 24.3385 14.6965C24.2091 14.2866 24.4376 13.8484 24.8481 13.7199C26.1628 13.3061 27.4029 13.4547 28.5604 14.2211Z" fill="#001249"/>
<path fill-rule="evenodd" clip-rule="evenodd" d="M43.6182 15.014C44.0114 15.1883 44.1899 15.6486 44.0156 16.0425C43.8413 16.4357 43.3803 16.6134 42.9871 16.4391C42.1719 16.0781 41.3716 16.1246 40.5829 16.5271C40.2004 16.7231 39.7301 16.571 39.5349 16.1876C39.3389 15.8051 39.491 15.3349 39.8744 15.1396C41.1015 14.5122 42.349 14.4516 43.6182 15.014Z" fill="#001249"/>
</svg>
